{"asset": {"version": "2.0", "generator": "simple-python-gltf"}, "buffers": [{"uri": "data:application/octet-stream;base64,", "byteLength": 564}], "bufferViews": [{"buffer": 0, "byteOffset": 0, "byteLength": 336, "target": 34962}, {"buffer": 0, "byteOffset": 336, "byteLength": 228, "target": 34963}], "accessors": [{"bufferView": 0, "byteOffset": 0, "componentType": 5126, "count": 28, "type": "VEC3", "max": [0.8999999761581421, 0.20999999344348907, 0.4000000059604645], "min": [-0.8999999761581421, -0.02500000037252903, -0.4000000059604645]}, {"bufferView": 1, "byteOffset": 0, "componentType": 5123, "count": 114, "type": "SCALAR"}], "materials": [{"name": "desk_mat", "pbrMetallicRoughness": {"baseColorFactor": [0.55, 0.38, 0.28, 1.0], "metallicFactor": 0.0, "roughnessFactor": 0.7}}, {"name": "laptop_mat", "pbrMetallicRoughness": {"baseColorFactor": [0.12, 0.12, 0.12, 1.0], "metallicFactor": 0.1, "roughnessFactor": 0.4}}, {"name": "screen_mat", "pbrMetallicRoughness": {"baseColorFactor": [0.02, 0.02, 0.04, 1.0], "metallicFactor": 0.0, "roughnessFactor": 0.2}, "emissiveFactor": [0.0, 0.05, 0.15]}, {"name": "holo_mat", "pbrMetallicRoughness": {"baseColorFactor": [0.0, 0.6, 0.8, 0.25], "metallicFactor": 0.0, "roughnessFactor": 0.1}, "emissiveFactor": [0.0, 0.8, 1.0], "alphaMode": "BLEND"}], "meshes": [{"name": "desk_mesh", "primitives": [{"attributes": {"POSITION": 0}, "indices": 1, "material": 0}]}, {"name": "laptop_base_mesh", "primitives": [{"attributes": {"POSITION": 0}, "indices": 1, "material": 1}]}, {"name": "laptop_screen_mesh", "primitives": [{"attributes": {"POSITION": 0}, "indices": 1, "material": 2}]}, {"name": "holo_plane_mesh", "primitives": [{"attributes": {"POSITION": 0}, "indices": 1, "material": 3}]}], "nodes": [{"name": "desk_node", "mesh": 0, "translation": [0.0, 0.0, 0.0]}, {"name": "laptop_base_node", "mesh": 1, "translation": [0.0, 0.02, 0.05]}, {"name": "laptop_screen_node", "mesh": 2, "translation": [0.0, 0.11, -0.03], "rotation": [-0.6427876096865394, 0.0, 0.0, 0.766044443118978]}, {"name": "holo_node", "mesh": 3, "translation": [0.0, 0.14, 0.02]}], "scenes": [{"nodes": [0, 1, 2, 3]}], "scene": 0}